<svg xmlns="http://www.w3.org/2000/svg" width="31.88" height="32" viewBox="0 0 1080 1080"><defs><style>.cls-1{fill:#00b4ff;}.cls-2{fill:#08a1c4;}.cls-3{fill:#41b781;}</style></defs><g id="icono_color" data-name="icono color"><g id="verde_copia" data-name="verde copia"><path class="cls-1" d="M668.31,712.73S531.4,720,350.92,913.65H213.8l227.57-747.3H540V293.19l-.06-.18L400.32,719c1.59-1.12,120.14-100.58,230.4-119.64Z"/><path class="cls-2" d="M416.86,703.91c-1.52,1.09-2.39,1.44-3,3.21-.37,1.12-1.77,5.2-2.36,6.91a.93.93,0,0,0,.45,1.14c2.5,1.32,79.37,29.74,109,47.62a12.33,12.33,0,0,0,11,1c6.73-2.73,11.63-5.76,11.86-10.22s1.46-3.39-1.28-6.66a26.94,26.94,0,0,0-7.78-6.39c-19.54-10.65-39.35-21-60.23-28.87C459.56,706,431.6,693.35,416.86,703.91Z"/><path class="cls-3" d="M412.53,712.33S548.6,720,729.08,913.65H866.2L638.63,166.35H540V293.19l.06-.18L679.68,719c-1.59-1.12-120.13-99.39-230.39-118.44Z"/></g></g></svg>